# xmcd
#
# Track frame offsets: 
#        150
#        14827
#        30025
#        46962
#        71162
#        84927
#        100302
#        115630
#        131945
#        147620
#        156232
#
# Disc length: 2294 seconds
#
# Revision: 0
# Processed by: cddbd v1.5.2PL0 Copyright (c) Steve Scherf et al.
# Submitted via: ExactAudioCopy v0.99pb4
#
DISCID=9508f40b
DTITLE=Jess Thomas - Easy In The Apple
DYEAR=2000
DGENRE=Blues
TTITLE0=Ya-Ya
TTITLE1=Those Lonely Lonely Nights
TTITLE2=Sick and Tired
TTITLE3=Go To The Mardi Gras
TTITLE4=Something You Got
TTITLE5=Slippin´& Slidin´
TTITLE6=The Things I Used To Do
TTITLE7=A Certain Girl
TTITLE8=Rockin´Pneumonia And The Boogie Woogie Flu
TTITLE9=I´m In Love Again
TTITLE10=Jock-A-Mo (Iko-Iko)
EXTD=
EXTT0=
EXTT1=
EXTT2=
EXTT3=
EXTT4=
EXTT5=
EXTT6=
EXTT7=
EXTT8=
EXTT9=
EXTT10=
PLAYORDER=
